<svg width="4949" height="1921" xmlns="http://www.w3.org/2000/svg" xmlns:xlink="http://www.w3.org/1999/xlink" xml:space="preserve" overflow="hidden"><g transform="translate(-28 -373)"><path d="M0-22.9167 529.667-22.9167 529.667 379.72 483.834 379.72 483.834 0 506.75 22.9167 0 22.9167ZM575.5 356.803 506.75 494.303 438 356.803Z" fill="#F19D19" transform="matrix(1 0 0 -1 3884 2145.3)"/><path d="M294.271 849.82 843.333 849.82 843.333 983.654 294.271 983.654Z" fill="#0E4D3C" fill-rule="evenodd"/><path d="M843.333 849.82 1114.85 849.82 1114.85 983.654 843.333 983.654Z" fill="#0E4D3C" fill-rule="evenodd"/><path d="M1114.85 849.82 1278.82 849.82 1278.82 983.654 1114.85 983.654Z" fill="#0E4D3C" fill-rule="evenodd"/><path d="M1278.82 849.82 1560.81 849.82 1560.81 983.654 1278.82 983.654Z" fill="#0E4D3C" fill-rule="evenodd"/><path d="M294.271 983.654 843.333 983.654 843.333 1117.49 294.271 1117.49Z" fill="#0E4D3C" fill-rule="evenodd"/><path d="M843.333 983.654 1114.85 983.654 1114.85 1117.49 843.333 1117.49Z" fill="#91EAD2" fill-rule="evenodd"/><path d="M1114.85 983.654 1278.82 983.654 1278.82 1117.49 1114.85 1117.49Z" fill="#91EAD2" fill-rule="evenodd"/><path d="M1278.82 983.654 1560.81 983.654 1560.81 1117.49 1278.82 1117.49Z" fill="#91EAD2" fill-rule="evenodd"/><path d="M294.271 1117.49 843.333 1117.49 843.333 1326.49 294.271 1326.49Z" fill="#0E4D3C" fill-rule="evenodd"/><path d="M843.333 1117.49 1114.85 1117.49 1114.85 1326.49 843.333 1326.49Z" fill="#C8F5E8" fill-rule="evenodd"/><path d="M1114.85 1117.49 1278.82 1117.49 1278.82 1326.49 1114.85 1326.49Z" fill="#C8F5E8" fill-rule="evenodd"/><path d="M1278.82 1117.49 1560.81 1117.49 1560.81 1326.49 1278.82 1326.49Z" fill="#C8F5E8" fill-rule="evenodd"/><path d="M294.271 1326.49 843.333 1326.49 843.333 1460.32 294.271 1460.32Z" fill="#0E4D3C" fill-rule="evenodd"/><path d="M843.333 1326.49 1114.85 1326.49 1114.85 1460.32 843.333 1460.32Z" fill="#91EAD2" fill-rule="evenodd"/><path d="M1114.85 1326.49 1278.82 1326.49 1278.82 1460.32 1114.85 1460.32Z" fill="#91EAD2" fill-rule="evenodd"/><path d="M1278.82 1326.49 1560.81 1326.49 1560.81 1460.32 1278.82 1460.32Z" fill="#91EAD2" fill-rule="evenodd"/><path d="M294.271 1460.32 843.333 1460.32 843.333 1669.32 294.271 1669.32Z" fill="#0E4D3C" fill-rule="evenodd"/><path d="M843.333 1460.32 1114.85 1460.32 1114.85 1669.32 843.333 1669.32Z" fill="#C8F5E8" fill-rule="evenodd"/><path d="M1114.85 1460.32 1278.82 1460.32 1278.82 1669.32 1114.85 1669.32Z" fill="#C8F5E8" fill-rule="evenodd"/><path d="M1278.82 1460.32 1560.81 1460.32 1560.81 1669.32 1278.82 1669.32Z" fill="#C8F5E8" fill-rule="evenodd"/><path d="M294.271 1669.32 843.333 1669.32 843.333 1803.15 294.271 1803.15Z" fill="#0E4D3C" fill-rule="evenodd"/><path d="M843.333 1669.32 1114.85 1669.32 1114.85 1803.15 843.333 1803.15Z" fill="#91EAD2" fill-rule="evenodd"/><path d="M1114.85 1669.32 1278.82 1669.32 1278.82 1803.15 1114.85 1803.15Z" fill="#91EAD2" fill-rule="evenodd"/><path d="M1278.82 1669.32 1560.81 1669.32 1560.81 1803.15 1278.82 1803.15Z" fill="#91EAD2" fill-rule="evenodd"/><path d="M843.333 847.529 843.333 1805.45" stroke="#FFFFFF" stroke-width="4.58333" stroke-linejoin="round" stroke-miterlimit="10" fill="none" fill-rule="evenodd"/><path d="M1114.85 847.529 1114.85 1805.45" stroke="#FFFFFF" stroke-width="4.58333" stroke-linejoin="round" stroke-miterlimit="10" fill="none" fill-rule="evenodd"/><path d="M1278.82 847.529 1278.82 1805.45" stroke="#FFFFFF" stroke-width="4.58333" stroke-linejoin="round" stroke-miterlimit="10" fill="none" fill-rule="evenodd"/><path d="M291.979 983.654 1563.1 983.654" stroke="#FFFFFF" stroke-width="13.75" stroke-linejoin="round" stroke-miterlimit="10" fill="none" fill-rule="evenodd"/><path d="M291.979 1117.49 1563.1 1117.49" stroke="#FFFFFF" stroke-width="4.58333" stroke-linejoin="round" stroke-miterlimit="10" fill="none" fill-rule="evenodd"/><path d="M291.979 1326.49 1563.1 1326.49" stroke="#FFFFFF" stroke-width="4.58333" stroke-linejoin="round" stroke-miterlimit="10" fill="none" fill-rule="evenodd"/><path d="M291.979 1460.32 1563.1 1460.32" stroke="#FFFFFF" stroke-width="4.58333" stroke-linejoin="round" stroke-miterlimit="10" fill="none" fill-rule="evenodd"/><path d="M291.979 1669.32 1563.1 1669.32" stroke="#FFFFFF" stroke-width="4.58333" stroke-linejoin="round" stroke-miterlimit="10" fill="none" fill-rule="evenodd"/><path d="M294.271 847.529 294.271 1805.45" stroke="#FFFFFF" stroke-width="4.58333" stroke-linejoin="round" stroke-miterlimit="10" fill="none" fill-rule="evenodd"/><path d="M1560.81 847.529 1560.81 1805.45" stroke="#FFFFFF" stroke-width="4.58333" stroke-linejoin="round" stroke-miterlimit="10" fill="none" fill-rule="evenodd"/><path d="M291.979 849.82 1563.1 849.82" stroke="#FFFFFF" stroke-width="4.58333" stroke-linejoin="round" stroke-miterlimit="10" fill="none" fill-rule="evenodd"/><path d="M291.979 1803.15 1563.1 1803.15" stroke="#FFFFFF" stroke-width="4.58333" stroke-linejoin="round" stroke-miterlimit="10" fill="none" fill-rule="evenodd"/><text fill="#FFFFFF" font-family="Arial,Arial_MSFontService,sans-serif" font-weight="700" font-size="73" transform="matrix(1 0 0 1 1332.16 937)">IL</text><text fill="#FFFFFF" font-family="Arial,Arial_MSFontService,sans-serif" font-weight="700" font-size="73" transform="matrix(1 0 0 1 1397.47 937)">-</text><text fill="#FFFFFF" font-family="Arial,Arial_MSFontService,sans-serif" font-weight="700" font-size="73" transform="matrix(1 0 0 1 1422.11 937)">1</text><text fill="#FFFFFF" font-family="Arial,Arial_MSFontService,sans-serif" font-weight="700" font-size="73" transform="matrix(1 0 0 1 1462.78 937)">β</text><text fill="#FFFFFF" font-family="Arial,Arial_MSFontService,sans-serif" font-weight="700" font-size="73" transform="matrix(1 0 0 1 1160.17 937)">…</text><g><text fill="#FFFFFF" font-family="Arial,Arial_MSFontService,sans-serif" font-weight="700" font-size="73" transform="matrix(1 0 0 1 883.701 937)">CCL1</text></g><g><text fill="#FFFFFF" font-family="Arial,Arial_MSFontService,sans-serif" font-weight="700" font-size="73" transform="matrix(1 0 0 1 327.271 1071)">SARS</text></g><text fill="#FFFFFF" font-family="Arial,Arial_MSFontService,sans-serif" font-weight="700" font-size="73" transform="matrix(1 0 0 1 530.083 1071)">-</text><text fill="#FFFFFF" font-family="Arial,Arial_MSFontService,sans-serif" font-weight="700" font-size="73" transform="matrix(1 0 0 1 554.719 1071)">CoV</text><g><text fill="#FFFFFF" font-family="Arial,Arial_MSFontService,sans-serif" font-weight="700" font-size="73" transform="matrix(1 0 0 1 327.271 1205)">SARS</text></g><text fill="#FFFFFF" font-family="Arial,Arial_MSFontService,sans-serif" font-weight="700" font-size="73" transform="matrix(1 0 0 1 530.083 1205)">-</text><text fill="#FFFFFF" font-family="Arial,Arial_MSFontService,sans-serif" font-weight="700" font-size="73" transform="matrix(1 0 0 1 554.719 1205)">CoV</text><text fill="#FFFFFF" font-family="Arial,Arial_MSFontService,sans-serif" font-weight="700" font-size="73" transform="matrix(1 0 0 1 696.756 1205)">-</text><text fill="#FFFFFF" font-family="Arial,Arial_MSFontService,sans-serif" font-weight="700" font-size="73" transform="matrix(1 0 0 1 721.392 1205)">2 </text><g><text fill="#FFFFFF" font-family="Arial,Arial_MSFontService,sans-serif" font-weight="700" font-size="73" transform="matrix(1 0 0 1 327.271 1293)">(Wuhan)</text></g><g><text fill="#FFFFFF" font-family="Arial,Arial_MSFontService,sans-serif" font-weight="700" font-size="73" transform="matrix(1 0 0 1 327.271 1414)">…</text></g><g><text fill="#FFFFFF" font-family="Arial,Arial_MSFontService,sans-serif" font-weight="700" font-size="73" transform="matrix(1 0 0 1 327.271 1548)">SARS</text></g><text fill="#FFFFFF" font-family="Arial,Arial_MSFontService,sans-serif" font-weight="700" font-size="73" transform="matrix(1 0 0 1 530.083 1548)">-</text><text fill="#FFFFFF" font-family="Arial,Arial_MSFontService,sans-serif" font-weight="700" font-size="73" transform="matrix(1 0 0 1 554.719 1548)">CoV</text><text fill="#FFFFFF" font-family="Arial,Arial_MSFontService,sans-serif" font-weight="700" font-size="73" transform="matrix(1 0 0 1 696.756 1548)">-</text><text fill="#FFFFFF" font-family="Arial,Arial_MSFontService,sans-serif" font-weight="700" font-size="73" transform="matrix(1 0 0 1 721.392 1548)">2 </text><g><text fill="#FFFFFF" font-family="Arial,Arial_MSFontService,sans-serif" font-weight="700" font-size="73" transform="matrix(1 0 0 1 327.271 1636)">(XBB)</text></g><g><text fill="#FFFFFF" font-family="Arial,Arial_MSFontService,sans-serif" font-weight="700" font-size="73" transform="matrix(1 0 0 1 327.271 1757)">MERS</text></g><text fill="#FFFFFF" font-family="Arial,Arial_MSFontService,sans-serif" font-weight="700" font-size="73" transform="matrix(1 0 0 1 538.677 1757)">-</text><text fill="#FFFFFF" font-family="Arial,Arial_MSFontService,sans-serif" font-weight="700" font-size="73" transform="matrix(1 0 0 1 563.313 1757)">CoV</text><text fill="#0E4D3C" font-family="Arial,Arial_MSFontService,sans-serif" font-weight="700" font-size="183" transform="matrix(0.61526 -0.788324 0.788324 0.61526 995.801 1540)">1,088</text><text fill="#0E4D3C" font-family="Arial,Arial_MSFontService,sans-serif" font-weight="700" font-size="147" transform="matrix(0.61526 -0.788324 0.788324 0.61526 1042.41 1781)">Complexes</text><text font-family="Arial,Arial_MSFontService,sans-serif" font-weight="400" font-size="83" transform="matrix(1 0 0 1 541.878 682)">64 Human Cytokines </text><path d="M311 834C311 806.662 314.694 784.5 319.25 784.5L927.75 784.5C932.306 784.5 936 762.338 936 735 936 762.338 939.694 784.5 944.25 784.5L1552.75 784.5C1557.31 784.5 1561 806.662 1561 834" stroke="#1D9A78" stroke-width="13.75" stroke-miterlimit="8" fill="none" fill-rule="evenodd"/><text font-family="Arial,Arial_MSFontService,sans-serif" font-weight="400" font-size="83" transform="matrix(-1.83697e-16 -1 1 -1.83697e-16 133.388 1598)">17 N Proteins</text><path d="M283 1803C253.453 1803 229.5 1799.01 229.5 1794.08L229.5 1335.42C229.5 1330.49 205.547 1326.5 176 1326.5 205.547 1326.5 229.5 1322.51 229.5 1317.58L229.5 858.916C229.5 853.992 253.453 850 283 850" stroke="#1D9A78" stroke-width="13.75" stroke-miterlimit="8" fill="none" fill-rule="evenodd"/><rect x="1952.5" y="850.5" width="824" height="446" stroke="#062B45" stroke-width="4.58333" stroke-miterlimit="8" fill="#1D6FA9"/><text fill="#FFFFFF" font-family="Arial,Arial_MSFontService,sans-serif" font-weight="700" font-size="110" transform="matrix(1 0 0 1 2272.02 982)">600</text><text fill="#FFFFFF" font-family="Arial,Arial_MSFontService,sans-serif" font-weight="400" font-size="110" transform="matrix(1 0 0 1 2088.69 1114)">HADDOCK</text><text fill="#FFFFFF" font-family="Arial,Arial_MSFontService,sans-serif" font-weight="400" font-size="110" transform="matrix(1 0 0 1 2137.68 1246)">Iterations</text><rect x="1952.5" y="1347.5" width="824" height="446" stroke="#062B45" stroke-width="4.58333" stroke-miterlimit="8" fill="#16537F"/><text fill="#FFFFFF" font-family="Arial,Arial_MSFontService,sans-serif" font-weight="700" font-size="110" transform="matrix(1 0 0 1 2302.68 1479)">25</text><text fill="#FFFFFF" font-family="Arial,Arial_MSFontService,sans-serif" font-weight="400" font-size="110" transform="matrix(1 0 0 1 2085.25 1611)">AlphaFold2</text><text fill="#FFFFFF" font-family="Arial,Arial_MSFontService,sans-serif" font-weight="400" font-size="110" transform="matrix(1 0 0 1 2137.68 1743)">Iterations</text><path d="M1561 1050.08 1837.62 1050.08 1837.62 1095.92 1561 1095.92ZM1814.71 1004.25 1952.21 1073 1814.71 1141.75Z" fill="#1D9A78"/><path d="M1561 1547.08 1837.62 1547.08 1837.62 1592.92 1561 1592.92ZM1814.71 1501.25 1952.21 1570 1814.71 1638.75Z" fill="#1D9A78"/><path d="M1607 1072.5C1607 1026.94 1643.94 990 1689.5 990 1735.06 990 1772 1026.94 1772 1072.5 1772 1118.06 1735.06 1155 1689.5 1155 1643.94 1155 1607 1118.06 1607 1072.5Z" fill="#1D9A78" fill-rule="evenodd"/><g><g><g><path d="M1725.01 1044.76 1716.24 1035.99 1688.5 1063.73 1660.76 1035.99 1651.99 1044.76 1679.73 1072.5 1651.99 1100.24 1660.76 1109.01 1688.5 1081.27 1716.24 1109.01 1725.01 1100.24 1697.27 1072.5Z" fill="#FFFFFF"/></g></g></g><path d="M1607 1570.5C1607 1524.94 1643.94 1488 1689.5 1488 1735.06 1488 1772 1524.94 1772 1570.5 1772 1616.06 1735.06 1653 1689.5 1653 1643.94 1653 1607 1616.06 1607 1570.5Z" fill="#1D9A78" fill-rule="evenodd"/><g><g><g><path d="M1725.01 1542.76 1716.24 1533.99 1688.5 1561.73 1660.76 1533.99 1651.99 1542.76 1679.73 1570.5 1651.99 1598.24 1660.76 1607.01 1688.5 1579.27 1716.24 1607.01 1725.01 1598.24 1697.27 1570.5Z" fill="#FFFFFF"/></g></g></g><path d="M2773.5 421.501C2773.5 400.514 2790.51 383.5 2811.5 383.5L3846.5 383.5C3867.49 383.5 3884.5 400.514 3884.5 421.501L3884.5 573.501C3884.5 594.488 3867.49 611.501 3846.5 611.501L2811.5 611.5C2790.51 611.5 2773.5 594.487 2773.5 573.499Z" stroke="#063E2F" stroke-width="4.58333" stroke-miterlimit="8" fill="#1D9A78" fill-rule="evenodd"/><text fill="#FFFFFF" font-family="Arial,Arial_MSFontService,sans-serif" font-weight="400" font-size="83" transform="matrix(1 0 0 1 2844.8 478)">Filter to Best Cluster using </text><text fill="#FFFFFF" font-family="Arial,Arial_MSFontService,sans-serif" font-weight="400" font-size="83" transform="matrix(1 0 0 1 2896.76 577)">van der Waals energies</text><path d="M2773.5 2069.5C2773.5 2048.51 2790.51 2031.5 2811.5 2031.5L3846.5 2031.5C3867.49 2031.5 3884.5 2048.51 3884.5 2069.5L3884.5 2221.5C3884.5 2242.49 3867.49 2259.5 3846.5 2259.5L2811.5 2259.5C2790.51 2259.5 2773.5 2242.49 2773.5 2221.5Z" stroke="#063E2F" stroke-width="4.58333" stroke-miterlimit="8" fill="#1D9A78" fill-rule="evenodd"/><text fill="#FFFFFF" font-family="Arial,Arial_MSFontService,sans-serif" font-weight="400" font-size="83" transform="matrix(1 0 0 1 2922.72 2126)">Filter to Best Complex </text><text fill="#FFFFFF" font-family="Arial,Arial_MSFontService,sans-serif" font-weight="400" font-size="83" transform="matrix(1 0 0 1 2952.51 2225)">using </text><text fill="#FFFFFF" font-family="Arial,Arial_MSFontService,sans-serif" font-weight="400" font-size="83" transform="matrix(1 0 0 1 3172.51 2225)">GDock</text><text fill="#FFFFFF" font-family="Arial,Arial_MSFontService,sans-serif" font-weight="400" font-size="83" transform="matrix(1 0 0 1 3447.51 2225)">Scores</text><path d="M22.9167-3.38636e-05 22.9169 129.645-22.9165 129.645-22.9167 3.38636e-05ZM68.7502 106.728 0.000360892 244.229-68.7498 106.729Z" fill="#1D9A78" transform="matrix(1 0 0 -1 3328 855.228)"/><path d="M3350.92 1788 3350.92 1916.49 3305.08 1916.49 3305.08 1788ZM3396.75 1893.57 3328 2031.07 3259.25 1893.57Z" fill="#1D9A78"/><path d="M2825 1072.5C2825 1026.94 2861.94 990 2907.5 990 2953.06 990 2990 1026.94 2990 1072.5 2990 1118.06 2953.06 1155 2907.5 1155 2861.94 1155 2825 1118.06 2825 1072.5Z" fill="#1D9A78" fill-rule="evenodd"/><text fill="#FFFFFF" font-family="Arial,Arial_MSFontService,sans-serif" font-weight="400" font-size="183" transform="matrix(1 0 0 1 2853.47 1141)">=</text><path d="M2825 1570.5C2825 1524.94 2861.94 1488 2907.5 1488 2953.06 1488 2990 1524.94 2990 1570.5 2990 1616.06 2953.06 1653 2907.5 1653 2861.94 1653 2825 1616.06 2825 1570.5Z" fill="#1D9A78" fill-rule="evenodd"/><text fill="#FFFFFF" font-family="Arial,Arial_MSFontService,sans-serif" font-weight="400" font-size="183" transform="matrix(1 0 0 1 2853.47 1639)">=</text><rect x="3038.5" y="855.5" width="581" height="441" stroke="#1D6FA9" stroke-width="4.58333" stroke-miterlimit="8" stroke-dasharray="36.6667 13.75" fill="#FFFFFF"/><text fill="#1D6FA9" font-family="Arial,Arial_MSFontService,sans-serif" font-weight="700" font-size="110" transform="matrix(1 0 0 1 3129.26 1051)">652,800</text><text fill="#1D6FA9" font-family="Arial,Arial_MSFontService,sans-serif" font-weight="400" font-size="110" transform="matrix(1 0 0 1 3187.69 1183)">PDBs</text><rect x="3038.5" y="1347.5" width="581" height="441" stroke="#16537F" stroke-width="4.58333" stroke-miterlimit="8" stroke-dasharray="36.6667 13.75" fill="#FFFFFF"/><text fill="#16537F" font-family="Arial,Arial_MSFontService,sans-serif" font-weight="700" font-size="110" transform="matrix(1 0 0 1 3159.91 1542)">27,200</text><text fill="#16537F" font-family="Arial,Arial_MSFontService,sans-serif" font-weight="400" font-size="110" transform="matrix(1 0 0 1 3187.71 1674)">PDBs</text><text fill="#F19D19" font-family="Arial,Arial_MSFontService,sans-serif" font-weight="700" font-size="128" transform="matrix(1 0 0 1 3980.04 1137)">Generate and </text><text fill="#F19D19" font-family="Arial,Arial_MSFontService,sans-serif" font-weight="700" font-size="128" transform="matrix(1 0 0 1 4112.38 1291)">Compare </text><text fill="#F19D19" font-family="Arial,Arial_MSFontService,sans-serif" font-weight="700" font-size="128" transform="matrix(1 0 0 1 4098.06 1445)">Predicted </text><text fill="#F19D19" font-family="Arial,Arial_MSFontService,sans-serif" font-weight="700" font-size="128" transform="matrix(1 0 0 1 3894.4 1599)">Docking Metrics</text><path d="M3884 474.083 4413.67 474.083 4413.67 880.858 4367.83 880.858 4367.83 497 4390.75 519.917 3884 519.917ZM4459.5 857.942 4390.75 995.442 4322 857.942Z" fill="#F19D19"/></g></svg>