<svg width="1995" height="4120" xmlns="http://www.w3.org/2000/svg" xmlns:xlink="http://www.w3.org/1999/xlink" xml:space="preserve" overflow="hidden"><g transform="translate(-49 823)"><path d="M750.917 389 750.917 657.823 705.084 657.823 705.083 389ZM796.75 634.906 728 772.406 659.25 634.906Z" fill="#1D9A78"/><path d="M1593.92 384.742 1596.99 657.406 1551.16 657.922 1548.08 385.258ZM1642.56 633.974 1575.36 772.24 1505.07 635.523Z" fill="#1D9A78"/><path d="M1598.63 2511 1598.63 2725.68 1152 2725.68 1174.92 2702.77 1174.92 2779.95 1129.08 2779.95 1129.08 2679.85 1575.71 2679.85 1552.8 2702.77 1552.8 2511ZM1220.75 2757.03 1152 2894.53 1083.25 2757.03Z" fill="#F19D19"/><path d="M316.079-559.925 1040.63-559.925 1040.63-426.092 316.079-426.092Z" fill="#0E4D3C" fill-rule="evenodd"/><path d="M1040.63-559.925 1398.93-559.925 1398.93-426.092 1040.63-426.092Z" fill="#0E4D3C" fill-rule="evenodd"/><path d="M1398.93-559.925 1615.3-559.925 1615.3-426.092 1398.93-426.092Z" fill="#0E4D3C" fill-rule="evenodd"/><path d="M1615.3-559.925 1987.42-559.925 1987.42-426.092 1615.3-426.092Z" fill="#0E4D3C" fill-rule="evenodd"/><path d="M316.079-426.092 1040.63-426.092 1040.63-292.259 316.079-292.259Z" fill="#0E4D3C" fill-rule="evenodd"/><path d="M1040.63-426.092 1398.93-426.092 1398.93-292.259 1040.63-292.259Z" fill="#91EAD2" fill-rule="evenodd"/><path d="M1398.93-426.092 1615.3-426.092 1615.3-292.259 1398.93-292.259Z" fill="#91EAD2" fill-rule="evenodd"/><path d="M1615.3-426.092 1987.42-426.092 1987.42-292.259 1615.3-292.259Z" fill="#91EAD2" fill-rule="evenodd"/><path d="M316.079-292.259 1040.63-292.259 1040.63-83.2586 316.079-83.2586Z" fill="#0E4D3C" fill-rule="evenodd"/><path d="M1040.63-292.259 1398.93-292.259 1398.93-83.2586 1040.63-83.2586Z" fill="#C8F5E8" fill-rule="evenodd"/><path d="M1398.93-292.259 1615.3-292.259 1615.3-83.2586 1398.93-83.2586Z" fill="#C8F5E8" fill-rule="evenodd"/><path d="M1615.3-292.259 1987.42-292.259 1987.42-83.2586 1615.3-83.2586Z" fill="#C8F5E8" fill-rule="evenodd"/><path d="M316.079-83.2586 1040.63-83.2586 1040.63 50.5747 316.079 50.5747Z" fill="#0E4D3C" fill-rule="evenodd"/><path d="M1040.63-83.2586 1398.93-83.2586 1398.93 50.5747 1040.63 50.5747Z" fill="#91EAD2" fill-rule="evenodd"/><path d="M1398.93-83.2586 1615.3-83.2586 1615.3 50.5747 1398.93 50.5747Z" fill="#91EAD2" fill-rule="evenodd"/><path d="M1615.3-83.2586 1987.42-83.2586 1987.42 50.5747 1615.3 50.5747Z" fill="#91EAD2" fill-rule="evenodd"/><path d="M316.079 50.5747 1040.63 50.5747 1040.63 259.575 316.079 259.575Z" fill="#0E4D3C" fill-rule="evenodd"/><path d="M1040.63 50.5747 1398.93 50.5747 1398.93 259.575 1040.63 259.575Z" fill="#C8F5E8" fill-rule="evenodd"/><path d="M1398.93 50.5747 1615.3 50.5747 1615.3 259.575 1398.93 259.575Z" fill="#C8F5E8" fill-rule="evenodd"/><path d="M1615.3 50.5747 1987.42 50.5747 1987.42 259.575 1615.3 259.575Z" fill="#C8F5E8" fill-rule="evenodd"/><path d="M316.079 259.575 1040.63 259.575 1040.63 393.408 316.079 393.408Z" fill="#0E4D3C" fill-rule="evenodd"/><path d="M1040.63 259.575 1398.93 259.575 1398.93 393.408 1040.63 393.408Z" fill="#91EAD2" fill-rule="evenodd"/><path d="M1398.93 259.575 1615.3 259.575 1615.3 393.408 1398.93 393.408Z" fill="#91EAD2" fill-rule="evenodd"/><path d="M1615.3 259.575 1987.42 259.575 1987.42 393.408 1615.3 393.408Z" fill="#91EAD2" fill-rule="evenodd"/><path d="M1040.63-562.217 1040.63 395.7" stroke="#FFFFFF" stroke-width="4.58333" stroke-linejoin="round" stroke-miterlimit="10" fill="none" fill-rule="evenodd"/><path d="M1398.93-562.217 1398.93 395.7" stroke="#FFFFFF" stroke-width="4.58333" stroke-linejoin="round" stroke-miterlimit="10" fill="none" fill-rule="evenodd"/><path d="M1615.3-562.217 1615.3 395.7" stroke="#FFFFFF" stroke-width="4.58333" stroke-linejoin="round" stroke-miterlimit="10" fill="none" fill-rule="evenodd"/><path d="M313.787-426.092 1989.71-426.092" stroke="#FFFFFF" stroke-width="13.75" stroke-linejoin="round" stroke-miterlimit="10" fill="none" fill-rule="evenodd"/><path d="M313.787-292.259 1989.71-292.259" stroke="#FFFFFF" stroke-width="4.58333" stroke-linejoin="round" stroke-miterlimit="10" fill="none" fill-rule="evenodd"/><path d="M313.787-83.2586 1989.71-83.2586" stroke="#FFFFFF" stroke-width="4.58333" stroke-linejoin="round" stroke-miterlimit="10" fill="none" fill-rule="evenodd"/><path d="M313.787 50.5747 1989.71 50.5747" stroke="#FFFFFF" stroke-width="4.58333" stroke-linejoin="round" stroke-miterlimit="10" fill="none" fill-rule="evenodd"/><path d="M313.787 259.575 1989.71 259.575" stroke="#FFFFFF" stroke-width="4.58333" stroke-linejoin="round" stroke-miterlimit="10" fill="none" fill-rule="evenodd"/><path d="M316.079-562.217 316.079 395.7" stroke="#FFFFFF" stroke-width="4.58333" stroke-linejoin="round" stroke-miterlimit="10" fill="none" fill-rule="evenodd"/><path d="M1987.42-562.217 1987.42 395.7" stroke="#FFFFFF" stroke-width="4.58333" stroke-linejoin="round" stroke-miterlimit="10" fill="none" fill-rule="evenodd"/><path d="M313.787-559.925 1989.71-559.925" stroke="#FFFFFF" stroke-width="4.58333" stroke-linejoin="round" stroke-miterlimit="10" fill="none" fill-rule="evenodd"/><path d="M313.787 393.408 1989.71 393.408" stroke="#FFFFFF" stroke-width="4.58333" stroke-linejoin="round" stroke-miterlimit="10" fill="none" fill-rule="evenodd"/><text fill="#FFFFFF" font-family="Arial,Arial_MSFontService,sans-serif" font-weight="700" font-size="73" transform="matrix(1 0 0 1 1713.7 -472)">IL</text><text fill="#FFFFFF" font-family="Arial,Arial_MSFontService,sans-serif" font-weight="700" font-size="73" transform="matrix(1 0 0 1 1779.02 -472)">-</text><text fill="#FFFFFF" font-family="Arial,Arial_MSFontService,sans-serif" font-weight="700" font-size="73" transform="matrix(1 0 0 1 1803.65 -472)">1</text><text fill="#FFFFFF" font-family="Arial,Arial_MSFontService,sans-serif" font-weight="700" font-size="73" transform="matrix(1 0 0 1 1844.33 -472)">β</text><text fill="#FFFFFF" font-family="Arial,Arial_MSFontService,sans-serif" font-weight="700" font-size="73" transform="matrix(1 0 0 1 1470.45 -472)">…</text><text fill="#FFFFFF" font-family="Arial,Arial_MSFontService,sans-serif" font-weight="700" font-size="73" transform="matrix(1 0 0 1 1124.39 -472)">CCL1</text><g><text fill="#FFFFFF" font-family="Arial,Arial_MSFontService,sans-serif" font-weight="700" font-size="73" transform="matrix(1 0 0 1 349.079 -339)">SARS</text></g><text fill="#FFFFFF" font-family="Arial,Arial_MSFontService,sans-serif" font-weight="700" font-size="73" transform="matrix(1 0 0 1 551.891 -339)">-</text><text fill="#FFFFFF" font-family="Arial,Arial_MSFontService,sans-serif" font-weight="700" font-size="73" transform="matrix(1 0 0 1 576.527 -339)">CoV</text><g><text fill="#FFFFFF" font-family="Arial,Arial_MSFontService,sans-serif" font-weight="700" font-size="73" transform="matrix(1 0 0 1 349.079 -205)">SARS</text></g><text fill="#FFFFFF" font-family="Arial,Arial_MSFontService,sans-serif" font-weight="700" font-size="73" transform="matrix(1 0 0 1 551.891 -205)">-</text><text fill="#FFFFFF" font-family="Arial,Arial_MSFontService,sans-serif" font-weight="700" font-size="73" transform="matrix(1 0 0 1 576.527 -205)">CoV</text><text fill="#FFFFFF" font-family="Arial,Arial_MSFontService,sans-serif" font-weight="700" font-size="73" transform="matrix(1 0 0 1 718.564 -205)">-</text><text fill="#FFFFFF" font-family="Arial,Arial_MSFontService,sans-serif" font-weight="700" font-size="73" transform="matrix(1 0 0 1 743.2 -205)">2 </text><g><text fill="#FFFFFF" font-family="Arial,Arial_MSFontService,sans-serif" font-weight="700" font-size="73" transform="matrix(1 0 0 1 349.079 -117)">(Wuhan)</text></g><g><text fill="#FFFFFF" font-family="Arial,Arial_MSFontService,sans-serif" font-weight="700" font-size="73" transform="matrix(1 0 0 1 349.079 4)">…</text></g><g><text fill="#FFFFFF" font-family="Arial,Arial_MSFontService,sans-serif" font-weight="700" font-size="73" transform="matrix(1 0 0 1 349.079 138)">SARS</text></g><text fill="#FFFFFF" font-family="Arial,Arial_MSFontService,sans-serif" font-weight="700" font-size="73" transform="matrix(1 0 0 1 551.891 138)">-</text><text fill="#FFFFFF" font-family="Arial,Arial_MSFontService,sans-serif" font-weight="700" font-size="73" transform="matrix(1 0 0 1 576.527 138)">CoV</text><text fill="#FFFFFF" font-family="Arial,Arial_MSFontService,sans-serif" font-weight="700" font-size="73" transform="matrix(1 0 0 1 718.564 138)">-</text><text fill="#FFFFFF" font-family="Arial,Arial_MSFontService,sans-serif" font-weight="700" font-size="73" transform="matrix(1 0 0 1 743.2 138)">2 </text><g><text fill="#FFFFFF" font-family="Arial,Arial_MSFontService,sans-serif" font-weight="700" font-size="73" transform="matrix(1 0 0 1 349.079 226)">(XBB)</text></g><g><text fill="#FFFFFF" font-family="Arial,Arial_MSFontService,sans-serif" font-weight="700" font-size="73" transform="matrix(1 0 0 1 349.079 347)">MERS</text></g><text fill="#FFFFFF" font-family="Arial,Arial_MSFontService,sans-serif" font-weight="700" font-size="73" transform="matrix(1 0 0 1 560.485 347)">-</text><text fill="#FFFFFF" font-family="Arial,Arial_MSFontService,sans-serif" font-weight="700" font-size="73" transform="matrix(1 0 0 1 585.121 347)">CoV</text><text fill="#0E4D3C" font-family="Arial,Arial_MSFontService,sans-serif" font-weight="700" font-size="183" transform="matrix(0.61526 -0.788324 0.788324 0.61526 1339.5 111)">1,088</text><text fill="#0E4D3C" font-family="Arial,Arial_MSFontService,sans-serif" font-weight="700" font-size="147" transform="matrix(0.61526 -0.788324 0.788324 0.61526 1386.11 352)">Complexes</text><text font-family="Arial,Arial_MSFontService,sans-serif" font-weight="400" font-size="83" transform="matrix(1 0 0 1 1132.57 -718)">64 Human Cytokines </text><path d="M1042-576C1042-603.338 1045.69-625.5 1050.25-625.5L1506.25-625.5C1510.81-625.5 1514.5-647.662 1514.5-675 1514.5-647.662 1518.19-625.5 1522.75-625.5L1978.75-625.5C1983.31-625.5 1987-603.338 1987-576" stroke="#1D9A78" stroke-width="13.75" stroke-miterlimit="8" fill="none" fill-rule="evenodd"/><text font-family="Arial,Arial_MSFontService,sans-serif" font-weight="400" font-size="83" transform="matrix(-1.83697e-16 -1 1 -1.83697e-16 153.756 237)">17 N Proteins</text><path d="M305 385C275.453 385 251.5 381.008 251.5 376.083L251.5-8.08337C251.5-13.0079 227.547-17 198-17 227.547-17 251.5-20.9921 251.5-25.9166L251.5-410.083C251.5-415.008 275.453-419 305-419" stroke="#1D9A78" stroke-width="13.75" stroke-miterlimit="8" fill="none" fill-rule="evenodd"/><rect x="316.5" y="772.5" width="824" height="447" stroke="#062B45" stroke-width="4.58333" stroke-miterlimit="8" fill="#1D6FA9"/><text fill="#FFFFFF" font-family="Arial,Arial_MSFontService,sans-serif" font-weight="700" font-size="110" transform="matrix(1 0 0 1 636.084 904)">600</text><text fill="#FFFFFF" font-family="Arial,Arial_MSFontService,sans-serif" font-weight="400" font-size="110" transform="matrix(1 0 0 1 452.75 1036)">HADDOCK</text><text fill="#FFFFFF" font-family="Arial,Arial_MSFontService,sans-serif" font-weight="400" font-size="110" transform="matrix(1 0 0 1 501.746 1168)">Iterations</text><rect x="1164.5" y="772.5" width="823" height="447" stroke="#062B45" stroke-width="4.58333" stroke-miterlimit="8" fill="#16537F"/><text fill="#FFFFFF" font-family="Arial,Arial_MSFontService,sans-serif" font-weight="700" font-size="110" transform="matrix(1 0 0 1 1514.17 904)">25</text><text fill="#FFFFFF" font-family="Arial,Arial_MSFontService,sans-serif" font-weight="400" font-size="110" transform="matrix(1 0 0 1 1296.74 1036)">AlphaFold2</text><text fill="#FFFFFF" font-family="Arial,Arial_MSFontService,sans-serif" font-weight="400" font-size="110" transform="matrix(1 0 0 1 1349.17 1168)">Iterations</text><path d="M646 524.5C646 478.937 682.936 442 728.5 442 774.063 442 811 478.937 811 524.5 811 570.064 774.063 607 728.5 607 682.936 607 646 570.064 646 524.5Z" fill="#1D9A78" fill-rule="evenodd"/><path d="M765 496.764 756.236 488 728.5 515.736 700.764 488 692 496.764 719.736 524.5 692 552.236 700.764 561 728.5 533.264 756.236 561 765 552.236 737.264 524.5Z" fill="#FFFFFF" fill-rule="evenodd"/><path d="M316.5 2144.83C316.5 2104.33 349.333 2071.5 389.834 2071.5L1067.17 2071.5C1107.67 2071.5 1140.5 2104.33 1140.5 2144.83L1140.5 2438.17C1140.5 2478.67 1107.67 2511.5 1067.17 2511.5L389.834 2511.5C349.333 2511.5 316.5 2478.67 316.5 2438.17Z" stroke="#063E2F" stroke-width="4.58333" stroke-miterlimit="8" fill="#1D9A78" fill-rule="evenodd"/><text fill="#FFFFFF" font-family="Arial,Arial_MSFontService,sans-serif" font-weight="400" font-size="83" transform="matrix(1 0 0 1 496.579 2173)">Filter to Best </text><text fill="#FFFFFF" font-family="Arial,Arial_MSFontService,sans-serif" font-weight="400" font-size="83" transform="matrix(1 0 0 1 487.412 2272)">Cluster </text><text fill="#FFFFFF" font-family="Arial,Arial_MSFontService,sans-serif" font-weight="400" font-size="83" transform="matrix(1 0 0 1 771.578 2272)">using</text><text fill="#FFFFFF" font-family="Arial,Arial_MSFontService,sans-serif" font-weight="400" font-size="83" transform="matrix(1 0 0 1 477.489 2371)">van der Waals </text><text fill="#FFFFFF" font-family="Arial,Arial_MSFontService,sans-serif" font-weight="400" font-size="83" transform="matrix(1 0 0 1 569.912 2470)">energies</text><path d="M1164.5 2144.83C1164.5 2104.33 1197.33 2071.5 1237.83 2071.5L1914.17 2071.5C1954.67 2071.5 1987.5 2104.33 1987.5 2144.83L1987.5 2438.17C1987.5 2478.67 1954.67 2511.5 1914.17 2511.5L1237.83 2511.5C1197.33 2511.5 1164.5 2478.67 1164.5 2438.17Z" stroke="#063E2F" stroke-width="4.58333" stroke-miterlimit="8" fill="#1D9A78" fill-rule="evenodd"/><text fill="#FFFFFF" font-family="Arial,Arial_MSFontService,sans-serif" font-weight="400" font-size="83" transform="matrix(1 0 0 1 1344 2222)">Filter to Best </text><text fill="#FFFFFF" font-family="Arial,Arial_MSFontService,sans-serif" font-weight="400" font-size="83" transform="matrix(1 0 0 1 1302.75 2321)">Complex using </text><text fill="#FFFFFF" font-family="Arial,Arial_MSFontService,sans-serif" font-weight="400" font-size="83" transform="matrix(1 0 0 1 1309.63 2420)">GDock</text><text fill="#FFFFFF" font-family="Arial,Arial_MSFontService,sans-serif" font-weight="400" font-size="83" transform="matrix(1 0 0 1 1584.63 2420)">Scores</text><path d="M750.917 1893 750.917 1955.78 705.083 1955.78 705.083 1893ZM796.75 1932.87 728 2070.37 659.25 1932.87Z" fill="#1D9A78"/><path d="M1597.92 1893 1597.92 1955.78 1552.08 1955.78 1552.08 1893ZM1643.75 1932.87 1575 2070.37 1506.25 1932.87Z" fill="#1D9A78"/><path d="M646 1335.5C646 1289.94 682.936 1253 728.5 1253 774.063 1253 811 1289.94 811 1335.5 811 1381.06 774.063 1418 728.5 1418 682.936 1418 646 1381.06 646 1335.5Z" fill="#1D9A78" fill-rule="evenodd"/><text fill="#FFFFFF" font-family="Arial,Arial_MSFontService,sans-serif" font-weight="400" font-size="183" transform="matrix(1 0 0 1 674.469 1404)">=</text><path d="M1493 1335.5C1493 1289.94 1529.94 1253 1575.5 1253 1621.06 1253 1658 1289.94 1658 1335.5 1658 1381.06 1621.06 1418 1575.5 1418 1529.94 1418 1493 1381.06 1493 1335.5Z" fill="#1D9A78" fill-rule="evenodd"/><text fill="#FFFFFF" font-family="Arial,Arial_MSFontService,sans-serif" font-weight="400" font-size="183" transform="matrix(1 0 0 1 1521.89 1404)">=</text><rect x="438.5" y="1453.5" width="580" height="440" stroke="#1D6FA9" stroke-width="4.58333" stroke-miterlimit="8" stroke-dasharray="36.6667 13.75" fill="#FFFFFF"/><text fill="#1D6FA9" font-family="Arial,Arial_MSFontService,sans-serif" font-weight="700" font-size="110" transform="matrix(1 0 0 1 528.948 1648)">652,800</text><text fill="#1D6FA9" font-family="Arial,Arial_MSFontService,sans-serif" font-weight="400" font-size="110" transform="matrix(1 0 0 1 587.386 1780)">PDBs</text><rect x="1285.5" y="1453.5" width="581" height="440" stroke="#16537F" stroke-width="4.58333" stroke-miterlimit="8" stroke-dasharray="36.6667 13.75" fill="#FFFFFF"/><text fill="#16537F" font-family="Arial,Arial_MSFontService,sans-serif" font-weight="700" font-size="110" transform="matrix(1 0 0 1 1407.02 1648)">27,200</text><text fill="#16537F" font-family="Arial,Arial_MSFontService,sans-serif" font-weight="400" font-size="110" transform="matrix(1 0 0 1 1434.82 1780)">PDBs</text><text fill="#F19D19" font-family="Arial,Arial_MSFontService,sans-serif" font-weight="700" font-size="128" transform="matrix(1 0 0 1 444.781 3036)">Generate and Compare </text><text fill="#F19D19" font-family="Arial,Arial_MSFontService,sans-serif" font-weight="700" font-size="128" transform="matrix(1 0 0 1 344.796 3190)">Predicted Docking Metrics</text><path d="M0-22.9167 214.684-22.9167 214.684 423.712 191.767 400.795 268.951 400.795 268.951 446.629 168.851 446.629 168.851 0 191.767 22.9167 0 22.9167ZM246.034 354.962 383.534 423.712 246.034 492.462Z" fill="#F19D19" transform="matrix(1.83697e-16 1 1 -1.83697e-16 728 2511)"/><path d="M1489 520.5C1489 474.936 1525.94 438 1571.5 438 1617.06 438 1654 474.936 1654 520.5 1654 566.063 1617.06 603 1571.5 603 1525.94 603 1489 566.063 1489 520.5Z" fill="#1D9A78" fill-rule="evenodd"/><path d="M1608 492.764 1599.24 484 1571.5 511.736 1543.76 484 1535 492.764 1562.74 520.5 1535 548.236 1543.76 557 1571.5 529.264 1599.24 557 1608 548.236 1580.26 520.5Z" fill="#FFFFFF" fill-rule="evenodd"/></g></svg>